<?xml version="1.0" standalone="no"?>
<!DOCTYPE svg PUBLIC "-//W3C//DTD SVG 20010904//EN"
 "http://www.w3.org/TR/2001/REC-SVG-20010904/DTD/svg10.dtd">
<svg version="1.0" xmlns="http://www.w3.org/2000/svg"
 width="612.000000pt" height="612.000000pt" viewBox="0 0 612.000000 612.000000"
 preserveAspectRatio="xMidYMid meet">

<g transform="translate(0.000000,612.000000) scale(0.100000,-0.100000)"
fill="#000000" stroke="none">
<path d="M2966 5024 c-34 -11 -64 -31 -102 -68 -89 -90 -84 -18 -84 -1135 l0
-976 -382 382 c-308 306 -391 383 -423 394 -159 52 -315 -57 -315 -221 0 -106
-7 -97 643 -748 336 -337 622 -615 647 -630 59 -35 154 -37 215 -5 23 13 295
277 647 630 655 656 647 647 648 754 0 171 -181 286 -335 212 -16 -8 -200
-184 -407 -391 l-378 -377 0 976 c0 1115 5 1045 -83 1134 -81 81 -178 103
-291 69z"/>
<path d="M1129 2060 c-61 -10 -99 -31 -137 -74 -49 -57 -54 -87 -50 -346 l3
-236 33 -67 c62 -124 190 -220 331 -247 73 -14 3428 -14 3502 0 79 15 188 72
247 130 29 28 65 79 84 117 l33 67 3 247 c3 232 2 250 -17 287 -59 116 -205
158 -330 95 -37 -19 -66 -42 -85 -70 -28 -40 -30 -51 -36 -167 -5 -114 -8
-127 -35 -172 -39 -62 -95 -101 -164 -114 -72 -13 -2813 -14 -2896 0 -74 12
-129 49 -169 114 -28 44 -30 57 -36 171 -5 117 -7 127 -35 167 -20 29 -48 52
-85 70 -67 32 -101 38 -161 28z"/>
</g>
</svg>
