<?xml version="1.0" standalone="no"?>
<!DOCTYPE svg PUBLIC "-//W3C//DTD SVG 20010904//EN"
 "http://www.w3.org/TR/2001/REC-SVG-20010904/DTD/svg10.dtd">
<svg version="1.0" xmlns="http://www.w3.org/2000/svg"
 width="512.000000pt" height="512.000000pt" viewBox="0 0 512.000000 512.000000"
 preserveAspectRatio="xMidYMid meet">

<g transform="translate(0.000000,512.000000) scale(0.100000,-0.100000)"
fill="#000000" stroke="none">
<path d="M2906 4596 c-57 -21 -87 -47 -113 -96 -23 -43 -23 -48 -23 -391 0
-195 -4 -350 -9 -353 -5 -3 -83 -24 -172 -47 -1212 -302 -1876 -938 -2158
-2067 -59 -239 -121 -610 -121 -725 1 -120 100 -205 225 -195 62 5 111 37 154
100 160 236 341 424 559 580 315 227 721 400 1132 483 149 31 371 58 382 47 4
-4 9 -159 10 -344 l3 -336 31 -39 c65 -80 169 -107 252 -64 20 11 343 306 717
656 970 909 995 934 1016 980 24 52 24 119 -1 170 -14 30 -241 248 -851 820
-458 429 -848 790 -869 802 -48 30 -114 37 -164 19z m883 -1241 c492 -461 522
-490 504 -505 -10 -8 -263 -244 -562 -525 -299 -280 -548 -511 -552 -513 -5
-2 -9 86 -9 195 0 186 -2 200 -23 237 -12 22 -39 53 -60 70 -38 30 -42 31
-160 34 -639 19 -1463 -260 -1995 -675 -46 -36 -85 -63 -87 -62 -6 7 64 226
106 331 311 781 892 1202 1968 1424 151 32 196 56 231 123 18 36 20 59 20 242
l0 201 48 -44 c27 -23 283 -263 571 -533z"/>
</g>
</svg>
